<svg width="292" height="64" viewBox="0 0 292 64" fill="none" xmlns="http://www.w3.org/2000/svg">
<path d="M197.577 26.8261L185.565 63.1886H178.431L170.278 37.6625L162.125 63.1886H154.992L142.979 26.8261H150.26L158.561 53.8077L166.713 26.8261H173.847L182 53.8077L190.3 26.8261H197.579H197.577Z" fill="#227EFB"/>
<path d="M225.644 28.7526C228.531 30.4248 230.814 32.7048 232.487 35.5884C234.161 38.4742 234.999 41.6124 234.999 45.0072C234.999 48.402 234.161 51.5402 232.487 54.4259C230.814 57.3117 228.531 59.5896 225.644 61.2618C222.756 62.9339 219.614 63.7711 216.216 63.7711C212.817 63.7711 209.676 62.9339 206.787 61.2618C203.898 59.5896 201.618 57.3117 199.944 54.4259C198.27 51.5423 197.432 48.402 197.432 45.0072C197.432 41.6124 198.27 38.4742 199.944 35.5884C201.618 32.7048 203.898 30.4248 206.787 28.7526C209.674 27.0804 212.817 26.2433 216.216 26.2433C219.614 26.2433 222.756 27.0804 225.644 28.7526ZM210.32 34.7156C208.524 35.7588 207.118 37.1891 206.098 39.0064C205.079 40.8236 204.57 42.8239 204.57 45.0051C204.57 47.1862 205.09 49.1865 206.134 51.0038C207.176 52.8211 208.585 54.2535 210.356 55.2946C212.127 56.3379 214.106 56.8574 216.289 56.8574C218.473 56.8574 220.439 56.3379 222.187 55.2946C223.935 54.2514 225.318 52.8211 226.337 51.0038C227.356 49.1865 227.866 47.1862 227.866 45.0051C227.866 42.8239 227.367 40.8236 226.373 39.0064C225.377 37.1891 223.994 35.7588 222.223 34.7156C220.45 33.6744 218.473 33.1528 216.289 33.1528C214.106 33.1528 212.114 33.6744 210.32 34.7156Z" fill="#227EFB"/>
<path d="M239.001 44.2058C239.001 38.3879 240.395 34.013 243.187 31.0788C245.977 28.1468 249.679 26.6787 254.29 26.6787H255.019V33.5881H254.29C251.669 33.5881 249.656 34.461 248.247 36.2068C246.838 37.9526 246.135 40.6196 246.135 44.2058V63.1863H239.001V44.2058Z" fill="#227EFB"/>
<path d="M258.949 12.2814H266.083V40.6449L280.279 26.8281H289.379L275.402 40.7185L291.782 63.1906H283.846L270.524 45.2281L266.083 49.5189V63.1906H258.949V12.2814Z" fill="#227EFB"/>
<path d="M30.6771 31.2746V12.1721H37.9371C37.9371 12.3719 37.9371 12.5738 37.9371 12.7778C37.9371 23.4354 38.0024 34.093 37.9161 44.7506C37.8508 52.9431 34.0797 58.9713 26.5986 62.3766C15.658 67.3552 2.58246 60.3553 0.523207 48.5703C-1.20547 38.6867 4.56382 29.4867 14.2221 26.8723C18.9154 25.6019 23.4634 25.9742 27.6072 28.7463C28.6894 29.4699 29.6307 30.4059 30.6771 31.2767V31.2746ZM30.8182 44.5382C30.7276 41.0593 29.1716 37.7381 25.8617 35.3024C21.5979 32.1664 15.1148 32.5366 11.2637 36.1459C8.15165 39.0653 6.96626 42.6873 7.52424 46.8666C8.55176 54.5837 16.1171 58.7546 23.036 56.3295C27.8304 54.6489 30.7972 50.295 30.8203 44.5382H30.8182Z" fill="#2E2E2D"/>
<path d="M131.809 45.1103C131.796 55.5849 123.343 64.0004 112.859 63.9688C102.392 63.9373 93.9909 55.5176 94.0014 45.0724C94.0119 34.6083 102.483 26.1782 112.956 26.2139C123.427 26.2497 131.82 34.663 131.807 45.1124L131.809 45.1103ZM124.625 45.083C124.549 39.2693 121.182 34.7998 115.708 33.5062C111.722 32.5639 108.067 33.4389 105.022 36.2279C101.912 39.0779 100.805 42.7041 101.329 46.8456C102.171 53.4837 108.543 58.0963 115.099 56.8322C120.772 55.7385 124.701 50.8924 124.625 45.083Z" fill="#2E2E2D"/>
<path d="M89.9495 63.3738H82.7779C82.7779 63.1529 82.7779 62.9342 82.7779 62.7154C82.7779 56.5779 82.7779 50.4382 82.7779 44.3007C82.7779 42.3677 82.5927 40.4621 81.9694 38.6154C80.8619 35.3363 78.1984 33.3444 74.7221 33.1951C73.0671 33.1236 71.4394 33.2287 69.8981 33.8955C67.462 34.9472 66.1523 36.9201 65.4722 39.3873C65.0174 41.0363 64.8995 42.7232 64.9016 44.4248C64.9079 50.5056 64.9037 56.5884 64.9037 62.6692V63.3696H57.7069C57.7069 63.1508 57.7069 62.9468 57.7069 62.7449C57.7069 56.6073 57.7005 50.4677 57.709 44.3302C57.7132 41.0868 58.0943 37.9024 59.4145 34.8967C61.5769 29.9728 65.4301 27.2595 70.6772 26.456C74.0292 25.9428 77.3455 26.1447 80.5334 27.3794C85.0793 29.142 87.7471 32.5746 89.0715 37.1578C89.7264 39.4273 89.9601 41.7557 89.9664 44.1072C89.9811 50.3794 89.9727 56.6515 89.9706 62.9237C89.9706 63.0541 89.9601 63.1866 89.9495 63.3801V63.3738Z" fill="#2E2E2D"/>
<path d="M44.6986 26.8028H51.8028V63.3504H44.6986V26.8028Z" fill="#2E2E2D"/>
<path d="M52.5614 17.3064C52.572 19.7799 50.7127 21.7044 48.287 21.7297C45.8088 21.7549 43.8485 19.8114 43.8485 17.3295C43.8485 14.8644 45.7688 12.944 48.2366 12.9398C50.6706 12.9356 52.5509 14.8328 52.5614 17.3085V17.3064Z" fill="#2E2E2D"/>
<path d="M157.995 3.01819L161.016 3.01819V-9.94205e-05L157.995 -9.94205e-05V3.01819Z" fill="#C2D956"/>
<path d="M154.972 3.01819L157.994 3.01819V-9.94205e-05L154.972 -9.94205e-05V3.01819Z" fill="#C2D956"/>
<path d="M151.954 3.01819L154.976 3.01819V-9.94205e-05L151.954 -9.94205e-05V3.01819Z" fill="#9FCC4F"/>
<path d="M148.932 3.01819L151.953 3.01819V-9.94205e-05L148.932 -9.94205e-05V3.01819Z" fill="#72BE49"/>
<path d="M145.913 3.01819L148.934 3.01819V-9.94205e-05L145.913 -9.94205e-05V3.01819Z" fill="#9FCC4E"/>
<path d="M142.891 3.01819L145.912 3.01819V-9.94205e-05L142.891 -9.94205e-05V3.01819Z" fill="#9FCC4E"/>
<path d="M139.87 3.01819L142.891 3.01819V-9.94205e-05L139.87 -9.94205e-05V3.01819Z" fill="#72BE49"/>
<path d="M136.851 3.01819L139.872 3.01819V-9.94205e-05L136.851 -9.94205e-05V3.01819Z" fill="#72BE49"/>
<path d="M157.995 6.03453H161.016V3.01624L157.995 3.01624V6.03453Z" fill="#A1CD51"/>
<path d="M161.014 6.03453H164.035V3.01624L161.014 3.01624V6.03453Z" fill="#BED757"/>
<path d="M154.972 6.03453H157.994V3.01624L154.972 3.01624V6.03453Z" fill="#72BE49"/>
<path d="M151.954 6.03453H154.976V3.01624L151.954 3.01624V6.03453Z" fill="#72BE49"/>
<path d="M148.932 6.03453H151.953V3.01624L148.932 3.01624V6.03453Z" fill="#72BE49"/>
<path d="M145.913 6.03453H148.934V3.01624L145.913 3.01624V6.03453Z" fill="#72BE49"/>
<path d="M142.891 6.03453H145.912V3.01624L142.891 3.01624V6.03453Z" fill="#72BE49"/>
<path d="M139.87 6.03453H142.891V3.01624L139.87 3.01624V6.03453Z" fill="#72BE49"/>
<path d="M136.851 6.03453H139.872V3.01624L136.851 3.01624V6.03453Z" fill="#72BE49"/>
<path d="M133.829 6.03453H136.851V3.01624L133.829 3.01624V6.03453Z" fill="#72BE49"/>
<path d="M157.995 9.05278H161.016V6.03449H157.995V9.05278Z" fill="#72BE49"/>
<path d="M161.014 9.05278H164.035V6.03449H161.014V9.05278Z" fill="#9FCC4E"/>
<path d="M164.036 9.05278H167.057V6.03449H164.036V9.05278Z" fill="#C3D952"/>
<path d="M154.972 9.05278H157.994V6.03449H154.972V9.05278Z" fill="#72BE49"/>
<path d="M151.954 9.05278H154.976V6.03449H151.954V9.05278Z" fill="#72BE49"/>
<path d="M148.932 9.05278H151.953V6.03449H148.932V9.05278Z" fill="#2EA14D"/>
<path d="M145.913 9.05278H148.934V6.03449H145.913V9.05278Z" fill="#2EA14D"/>
<path d="M142.891 9.05278H145.912V6.03449H142.891V9.05278Z" fill="#72BE49"/>
<path d="M139.87 9.05278H142.891V6.03449H139.87V9.05278Z" fill="#72BE49"/>
<path d="M136.851 9.05278H139.872V6.03449H136.851V9.05278Z" fill="#72BE49"/>
<path d="M133.829 9.05278H136.851V6.03449H133.829V9.05278Z" fill="#72BE49"/>
<path d="M130.81 9.05278H133.831V6.03449H130.81V9.05278Z" fill="#72BE49"/>
<path d="M157.995 12.0689H161.016V9.05059H157.995V12.0689Z" fill="#72BE49"/>
<path d="M161.014 12.0689H164.035V9.05059H161.014V12.0689Z" fill="#72BE49"/>
<path d="M164.036 12.0689H167.057V9.05059H164.036V12.0689Z" fill="#9FCC4E"/>
<path d="M154.972 12.0689H157.994V9.05059H154.972V12.0689Z" fill="#72BE49"/>
<path d="M151.954 12.0689H154.976V9.05059H151.954V12.0689Z" fill="#72BE49"/>
<path d="M148.932 12.0689H151.953V9.05059H148.932V12.0689Z" fill="#4A3B52"/>
<path d="M145.913 12.0689H148.934V9.05059H145.913V12.0689Z" fill="#F3F8F0"/>
<path d="M142.891 12.0689H145.912V9.05059H142.891V12.0689Z" fill="#72BE49"/>
<path d="M139.87 12.0689H142.891V9.05059H139.87V12.0689Z" fill="#72BE49"/>
<path d="M136.851 12.0689H139.872V9.05059H136.851V12.0689Z" fill="#72BE49"/>
<path d="M133.829 12.0689H136.851V9.05059H133.829V12.0689Z" fill="#72BE49"/>
<path d="M130.81 12.0689H133.831V9.05059H130.81V12.0689Z" fill="#72BE49"/>
<path d="M157.995 15.0871H161.016V12.0688H157.995V15.0871Z" fill="#72BE49"/>
<path d="M161.014 15.0871H164.035V12.0688H161.014V15.0871Z" fill="#26A64C"/>
<path d="M164.036 15.0871H167.057V12.0688H164.036V15.0871Z" fill="#72BE49"/>
<path d="M154.972 15.0871H157.994V12.0688H154.972V15.0871Z" fill="#72BE49"/>
<path d="M151.954 15.0871H154.976V12.0688H151.954V15.0871Z" fill="#72BE49"/>
<path d="M148.932 15.0871H151.953V12.0688H148.932V15.0871Z" fill="#A4CE51"/>
<path d="M145.913 15.0871H148.934V12.0688H145.913V15.0871Z" fill="#A4CE51"/>
<path d="M142.891 15.0871H145.912V12.0688H142.891V15.0871Z" fill="#A4CE51"/>
<path d="M139.87 15.0871H142.891V12.0688H139.87V15.0871Z" fill="#72BE49"/>
<path d="M136.851 15.0871H139.872V12.0688H136.851V15.0871Z" fill="#72BE49"/>
<path d="M133.829 15.0871H136.851V12.0688H133.829V15.0871Z" fill="#72BE49"/>
<path d="M130.81 15.0871H133.831V12.0688H130.81V15.0871Z" fill="#72BE49"/>
<path d="M157.995 18.1035H161.016V15.0852H157.995V18.1035Z" fill="#72BE49"/>
<path d="M161.014 18.1035H164.035V15.0852H161.014V18.1035Z" fill="#72BE49"/>
<path d="M164.036 18.1035H167.057V15.0852H164.036V18.1035Z" fill="#72BE49"/>
<path d="M154.972 18.1035H157.994V15.0852H154.972V18.1035Z" fill="#72BE49"/>
<path d="M151.954 18.1035H154.976V15.0852H151.954V18.1035Z" fill="#72BE49"/>
<path d="M148.932 18.1035H151.953V15.0852H148.932V18.1035Z" fill="#72BE49"/>
<path d="M145.913 18.1035H148.934V15.0852H145.913V18.1035Z" fill="#72BE49"/>
<path d="M142.891 18.1035H145.912V15.0852H142.891V18.1035Z" fill="#72BE49"/>
<path d="M139.87 18.1035H142.891V15.0852H139.87V18.1035Z" fill="#72BE49"/>
<path d="M136.851 18.1035H139.872V15.0852H136.851V18.1035Z" fill="#72BE49"/>
<path d="M133.829 18.1035H136.851V15.0852H133.829V18.1035Z" fill="#72BE49"/>
<path d="M130.81 18.1035H133.831V15.0852H130.81V18.1035Z" fill="#72BE49"/>
<path d="M157.995 24.1378H161.016V21.1195H157.995V24.1378Z" fill="#72BE49"/>
<path d="M161.014 24.1378H164.035V21.1195H161.014V24.1378Z" fill="#72BE49"/>
<path d="M154.972 24.1378H157.994V21.1195H154.972V24.1378Z" fill="#72BE49"/>
<path d="M151.954 24.1378H154.976V21.1195H151.954V24.1378Z" fill="#72BE49"/>
<path d="M148.932 24.1378H151.953V21.1195H148.932V24.1378Z" fill="#72BE49"/>
<path d="M145.913 24.1378H148.934V21.1195H145.913V24.1378Z" fill="#72BE49"/>
<path d="M142.891 24.1378H145.912V21.1195H142.891V24.1378Z" fill="#72BE49"/>
<path d="M139.87 24.1378H142.891V21.1195H139.87V24.1378Z" fill="#27A54D"/>
<path d="M136.851 24.1378H139.872V21.1195H136.851V24.1378Z" fill="#27A54D"/>
<path d="M133.829 24.1378H136.851V21.1195H133.829V24.1378Z" fill="#72BE49"/>
<path d="M130.81 24.1378H133.831V21.1195H130.81V24.1378Z" fill="#72BE49"/>
<path d="M127.787 24.1378H130.809V21.1195H127.787V24.1378Z" fill="#72BE49"/>
<path d="M142.891 27.1561H145.912V24.1378H142.891V27.1561Z" fill="#27A54D"/>
<path d="M139.87 27.1561H142.891V24.1378H139.87V27.1561Z" fill="#72BE49"/>
<path d="M136.851 27.1561H139.872V24.1378H136.851V27.1561Z" fill="#72BE49"/>
<path d="M133.829 27.1561H136.851V24.1378H133.829V27.1561Z" fill="#72BE49"/>
<path d="M130.81 27.1561H133.831V24.1378H130.81V27.1561Z" fill="#72BE49"/>
<path d="M127.787 27.1561H130.809V24.1378H127.787V27.1561Z" fill="#72BE49"/>
<path d="M124.769 27.1561H127.79V24.1378H124.769V27.1561Z" fill="#9FCC50"/>
<path d="M142.891 30.1743H145.912V27.156H142.891V30.1743Z" fill="#72BE49"/>
<path d="M139.87 30.1743H142.891V27.156H139.87V30.1743Z" fill="#72BE49"/>
<path d="M136.851 30.1743H139.872V27.156H136.851V30.1743Z" fill="#72BE49"/>
<path d="M133.829 30.1743H136.851V27.156H133.829V30.1743Z" fill="#72BE49"/>
<path d="M130.81 30.1743H133.831V27.156H130.81V30.1743Z" fill="#72BE49"/>
<path d="M127.787 30.1743H130.809V27.156H127.787V30.1743Z" fill="#72BE49"/>
<path d="M124.769 30.1743H127.79V27.156H124.769V30.1743Z" fill="#9FCC50"/>
<path d="M121.749 30.1743H124.771V27.156H121.749V30.1743Z" fill="#C4DA59"/>
<path d="M142.891 33.1906H145.912V30.1723H142.891V33.1906Z" fill="#9FCC4B"/>
<path d="M139.87 33.1906H142.891V30.1723H139.87V33.1906Z" fill="#72BE49"/>
<path d="M136.851 33.1906H139.872V30.1723H136.851V33.1906Z" fill="#72BE49"/>
<path d="M133.829 33.1906H136.851V30.1723H133.829V33.1906Z" fill="#72BE49"/>
<path d="M130.81 33.1906H133.831V30.1723H130.81V33.1906Z" fill="#72BE49"/>
<path d="M127.787 33.1906H130.809V30.1723H127.787V33.1906Z" fill="#72BE49"/>
<path d="M124.769 33.1906H127.79V30.1723H124.769V33.1906Z" fill="#72BE49"/>
<path d="M121.749 33.1906H124.771V30.1723H121.749V33.1906Z" fill="#9FCC50"/>
<path d="M118.726 33.1906H121.747V30.1723H118.726V33.1906Z" fill="#C4DA59"/>
<path d="M142.891 36.2089H145.912V33.1906H142.891V36.2089Z" fill="#9FCC4D"/>
<path d="M145.913 36.2089H148.934V33.1906H145.913V36.2089Z" fill="#C6DD7B"/>
<path d="M148.932 36.2089H151.953V33.1906H148.932V36.2089Z" fill="#C6DD7B"/>
<path d="M139.87 36.2089H142.891V33.1906H139.87V36.2089Z" fill="#72BE49"/>
<path d="M136.851 36.2089H139.872V33.1906H136.851V36.2089Z" fill="#27A54C"/>
<path d="M133.829 36.2089H136.851V33.1906H133.829V36.2089Z" fill="#72BE49"/>
<path d="M130.81 36.2089H133.831V33.1906H130.81V36.2089Z" fill="#72BE49"/>
<path d="M127.787 36.2089H130.809V33.1906H127.787V36.2089Z" fill="#72BE49"/>
<path d="M124.769 36.2089H127.79V33.1906H124.769V36.2089Z" fill="#72BE49"/>
<path d="M121.749 36.2089H124.771V33.1906H121.749V36.2089Z" fill="#72BE49"/>
<path d="M118.726 36.2089H121.747V33.1906H118.726V36.2089Z" fill="#A0CC4F"/>
<path d="M115.705 36.2089H118.727V33.1906H115.705V36.2089Z" fill="#C4D956"/>
<path d="M112.684 36.2089H115.706V33.1906H112.684V36.2089Z" fill="#C3DA5E"/>
<path d="M109.665 36.2089H112.687V33.1906H109.665V36.2089Z" fill="#72BE49"/>
<path d="M106.644 36.2089H109.666V33.1906H106.644V36.2089Z" fill="#72BE49"/>
<path d="M103.625 36.2089H106.646V33.1906H103.625V36.2089Z" fill="#72BE49"/>
<path d="M142.891 39.225H145.912V36.2067H142.891V39.225Z" fill="#72BE49"/>
<path d="M145.913 39.225H148.934V36.2067H145.913V39.225Z" fill="#72BE49"/>
<path d="M148.932 39.225H151.953V36.2067H148.932V39.225Z" fill="#72BE49"/>
<path d="M151.954 39.225H154.976V36.2067H151.954V39.225Z" fill="#C6DD7B"/>
<path d="M151.954 42.2433H154.976V39.225H151.954V42.2433Z" fill="#72BE49"/>
<path d="M139.87 39.225H142.891V36.2067H139.87V39.225Z" fill="#72BE49"/>
<path d="M136.851 39.225H139.872V36.2067H136.851V39.225Z" fill="#27A54C"/>
<path d="M133.829 39.225H136.851V36.2067H133.829V39.225Z" fill="#72BE49"/>
<path d="M130.81 39.225H133.831V36.2067H130.81V39.225Z" fill="#72BE49"/>
<path d="M127.787 39.225H130.809V36.2067H127.787V39.225Z" fill="#72BE49"/>
<path d="M124.769 39.225H127.79V36.2067H124.769V39.225Z" fill="#72BE49"/>
<path d="M121.749 39.225H124.771V36.2067H121.749V39.225Z" fill="#72BE49"/>
<path d="M118.726 39.225H121.747V36.2067H118.726V39.225Z" fill="#72BE49"/>
<path d="M115.705 39.225H118.727V36.2067H115.705V39.225Z" fill="#72BE49"/>
<path d="M112.684 39.225H115.706V36.2067H112.684V39.225Z" fill="#72BE49"/>
<path d="M109.665 39.225H112.687V36.2067H109.665V39.225Z" fill="#72BE49"/>
<path d="M106.644 39.225H109.666V36.2067H106.644V39.225Z" fill="#72BE49"/>
<path d="M139.87 42.2433H142.891V39.225H139.87V42.2433Z" fill="#27A54C"/>
<path d="M136.851 42.2433H139.872V39.225H136.851V42.2433Z" fill="#27A54C"/>
<path d="M133.829 42.2433H136.851V39.225H133.829V42.2433Z" fill="#72BE49"/>
<path d="M130.81 42.2433H133.831V39.225H130.81V42.2433Z" fill="#72BE49"/>
<path d="M127.787 42.2433H130.809V39.225H127.787V42.2433Z" fill="#72BE49"/>
<path d="M124.769 42.2433H127.79V39.225H124.769V42.2433Z" fill="#72BE49"/>
<path d="M121.749 42.2433H124.771V39.225H121.749V42.2433Z" fill="#72BE49"/>
<path d="M118.726 42.2433H121.747V39.225H118.726V42.2433Z" fill="#72BE49"/>
<path d="M115.705 42.2433H118.727V39.225H115.705V42.2433Z" fill="#72BE49"/>
<path d="M112.684 42.2433H115.706V39.225H112.684V42.2433Z" fill="#72BE49"/>
<path d="M109.665 42.2433H112.687V39.225H109.665V42.2433Z" fill="#72BE49"/>
<path d="M106.644 42.2433H109.666V39.225H106.644V42.2433Z" fill="#23A64A"/>
<path d="M139.87 45.2596H142.891V42.2413H139.87V45.2596Z" fill="#27A54C"/>
<path d="M136.851 45.2596H139.872V42.2413H136.851V45.2596Z" fill="#27A54C"/>
<path d="M133.829 45.2596H136.851V42.2413H133.829V45.2596Z" fill="#27A54C"/>
<path d="M130.81 45.2596H133.831V42.2413H130.81V45.2596Z" fill="#72BE49"/>
<path d="M127.787 45.2596H130.809V42.2413H127.787V45.2596Z" fill="#72BE49"/>
<path d="M124.769 45.2596H127.79V42.2413H124.769V45.2596Z" fill="#72BE49"/>
<path d="M121.749 45.2596H124.771V42.2413H121.749V45.2596Z" fill="#72BE49"/>
<path d="M118.726 45.2596H121.747V42.2413H118.726V45.2596Z" fill="#72BE49"/>
<path d="M115.705 45.2596H118.727V42.2413H115.705V45.2596Z" fill="#72BE49"/>
<path d="M112.684 45.2596H115.706V42.2413H112.684V45.2596Z" fill="#72BE49"/>
<path d="M109.665 45.2596H112.687V42.2413H109.665V45.2596Z" fill="#72BE49"/>
<path d="M106.644 45.2596H109.666V42.2413H106.644V45.2596Z" fill="#23A64A"/>
<path d="M136.851 48.2779H139.872V45.2596H136.851V48.2779Z" fill="#27A54C"/>
<path d="M133.829 48.2779H136.851V45.2596H133.829V48.2779Z" fill="#27A54C"/>
<path d="M130.81 48.2779H133.831V45.2596H130.81V48.2779Z" fill="#27A54C"/>
<path d="M127.787 48.2779H130.809V45.2596H127.787V48.2779Z" fill="#72BE49"/>
<path d="M124.769 48.2779H127.79V45.2596H124.769V48.2779Z" fill="#9DCB4E"/>
<path d="M121.749 48.2779H124.771V45.2596H121.749V48.2779Z" fill="#72BE49"/>
<path d="M118.726 48.2779H121.747V45.2596H118.726V48.2779Z" fill="#72BE49"/>
<path d="M115.705 48.2779H118.727V45.2596H115.705V48.2779Z" fill="#72BE49"/>
<path d="M112.684 48.2779H115.706V45.2596H112.684V48.2779Z" fill="#72BE49"/>
<path d="M109.665 48.2779H112.687V45.2596H109.665V48.2779Z" fill="#28A54A"/>
<path d="M133.829 51.2961H136.851V48.2778H133.829V51.2961Z" fill="#27A54C"/>
<path d="M130.81 51.2961H133.831V48.2778H130.81V51.2961Z" fill="#27A54C"/>
<path d="M133.829 54.3122H136.851V51.2939H133.829V54.3122Z" fill="#27A54C"/>
<path d="M130.81 54.3122H133.831V51.2939H130.81V54.3122Z" fill="#27A54C"/>
<path d="M133.829 57.3305H136.851V54.3122H133.829V57.3305Z" fill="#27A54C"/>
<path d="M130.81 57.3305H133.831V54.3122H130.81V57.3305Z" fill="#27A54C"/>
<path d="M133.829 60.3468H136.851V57.3285H133.829V60.3468Z" fill="#27A54C"/>
<path d="M130.81 60.3468H133.831V57.3285H130.81V60.3468Z" fill="#27A54C"/>
<path d="M136.851 63.365H139.872V60.3467H136.851V63.365Z" fill="#27A54C"/>
<path d="M133.829 63.365H136.851V60.3467H133.829V63.365Z" fill="#27A54C"/>
<path d="M127.787 51.2961H130.809V48.2778H127.787V51.2961Z" fill="#27A54C"/>
<path d="M124.769 51.2961H127.79V48.2778H124.769V51.2961Z" fill="#9DCB4E"/>
<path d="M121.749 51.2961H124.771V48.2778H121.749V51.2961Z" fill="#9DCB4E"/>
<path d="M118.726 51.2961H121.747V48.2778H118.726V51.2961Z" fill="#72BE49"/>
<path d="M121.749 54.3122H124.771V51.2939H121.749V54.3122Z" fill="#9DCB4E"/>
<path d="M118.726 54.3122H121.747V51.2939H118.726V54.3122Z" fill="#72BE49"/>
<path d="M121.749 57.3305H124.771V54.3122H121.749V57.3305Z" fill="#9DCB4E"/>
<path d="M118.726 57.3305H121.747V54.3122H118.726V57.3305Z" fill="#72BE49"/>
<path d="M121.749 60.3468H124.771V57.3285H121.749V60.3468Z" fill="#72BE49"/>
<path d="M118.726 60.3468H121.747V57.3285H118.726V60.3468Z" fill="#72BE49"/>
<path d="M124.769 63.365H127.79V60.3467H124.769V63.365Z" fill="#72BE49"/>
<path d="M121.749 63.365H124.771V60.3467H121.749V63.365Z" fill="#72BE49"/>
<path d="M115.705 51.2961H118.727V48.2778H115.705V51.2961Z" fill="#72BE49"/>
<path d="M112.684 51.2961H115.706V48.2778H112.684V51.2961Z" fill="#28A54A"/>
<path d="M103.625 39.225H106.646V36.2067H103.625V39.225Z" fill="#28A44D"/>
<path d="M100.602 36.2089H103.624V33.1906H100.602V36.2089Z" fill="#2BA255"/>
<path d="M106.644 33.1906H109.666V30.1723H106.644V33.1906Z" fill="#C1D95C"/>
<path d="M103.625 33.1906H106.646V30.1723H103.625V33.1906Z" fill="#9FCC4F"/>
<path d="M100.602 33.1906H103.624V30.1723H100.602V33.1906Z" fill="#71BE48"/>
<path d="M97.581 33.1906H100.603V30.1723H97.581V33.1906Z" fill="#27A54D"/>
<path d="M100.602 30.1743H103.624V27.156H100.602V30.1743Z" fill="#A0CC4F"/>
<path d="M97.581 30.1743H100.603V27.156H97.581V30.1743Z" fill="#72BE49"/>
<path d="M94.5617 30.1743H97.5831V27.156H94.5617V30.1743Z" fill="#72BE49"/>
<path d="M91.541 30.1743H94.5625V27.156H91.541V30.1743Z" fill="#72BE49"/>
<path d="M88.5362 33.1906H91.5577V30.1723H88.5362V33.1906Z" fill="#71BE46"/>
<path d="M148.932 21.1216H151.953V18.1033H148.932V21.1216Z" fill="#72BE49"/>
<path d="M145.913 21.1216H148.934V18.1033H145.913V21.1216Z" fill="#72BE49"/>
<path d="M142.891 21.1216H145.912V18.1033H142.891V21.1216Z" fill="#72BE49"/>
<path d="M139.87 21.1216H142.891V18.1033H139.87V21.1216Z" fill="#72BE49"/>
<path d="M136.851 21.1216H139.872V18.1033H136.851V21.1216Z" fill="#72BE49"/>
<path d="M133.829 21.1216H136.851V18.1033H133.829V21.1216Z" fill="#72BE49"/>
<path d="M130.81 21.1216H133.831V18.1033H130.81V21.1216Z" fill="#72BE49"/>
<path d="M114.106 56.9751C107.91 57.6208 102.123 53.1491 101.325 46.8454C100.801 42.704 101.909 39.0778 105.019 36.2278C107.95 33.5418 111.447 32.6374 115.26 33.4135C115.212 33.0139 115.178 32.6164 115.161 32.2188C115.077 30.3595 115.662 28.334 116.62 26.5777C115.435 26.3442 114.209 26.218 112.955 26.2138C102.481 26.1781 94.0107 34.6082 94.0001 45.0723C93.9896 55.5196 102.391 63.9372 112.858 63.9687C114.532 63.9729 116.151 63.7626 117.694 63.3629C117.559 63.2473 117.427 63.1295 117.294 63.0096C115.559 61.4174 114.559 59.2467 114.104 56.9772L114.106 56.9751Z" fill="#2E2E2D"/>
</svg>
