<svg width="104" height="24" viewBox="0 0 104 24" fill="none" xmlns="http://www.w3.org/2000/svg">
<path d="M70.3973 10.1544L66.1125 23.1249H63.5679L60.6598 14.0198L57.7517 23.1249H55.2072L50.9224 10.1544H53.5196L56.4802 19.7787L59.3883 10.1544H61.9329L64.841 19.7787L67.8016 10.1544H70.398H70.3973Z" fill="#227EFB"/>
<path d="M80.4089 10.8417C81.4386 11.4381 82.2528 12.2514 82.8499 13.28C83.447 14.3093 83.7459 15.4287 83.7459 16.6396C83.7459 17.8505 83.447 18.9699 82.8499 19.9993C82.2528 21.0286 81.4386 21.8412 80.4089 22.4376C79.3785 23.0341 78.2579 23.3327 77.0457 23.3327C75.8335 23.3327 74.713 23.0341 73.6825 22.4376C72.6521 21.8412 71.8387 21.0286 71.2416 19.9993C70.6445 18.9707 70.3456 17.8505 70.3456 16.6396C70.3456 15.4287 70.6445 14.3093 71.2416 13.28C71.8387 12.2514 72.6521 11.4381 73.6825 10.8417C74.7122 10.2452 75.8335 9.94659 77.0457 9.94659C78.2579 9.94659 79.3785 10.2452 80.4089 10.8417ZM74.9428 12.9686C74.3021 13.3408 73.8004 13.8509 73.4369 14.4992C73.0734 15.1474 72.8916 15.8609 72.8916 16.6389C72.8916 17.4169 73.0772 18.1304 73.4497 18.7786C73.8215 19.4268 74.3239 19.9378 74.9555 20.3091C75.5872 20.6813 76.2932 20.8666 77.072 20.8666C77.8509 20.8666 78.5523 20.6813 79.1757 20.3091C79.7991 19.937 80.2925 19.4268 80.656 18.7786C81.0196 18.1304 81.2013 17.4169 81.2013 16.6389C81.2013 15.8609 81.0233 15.1474 80.6688 14.4992C80.3136 13.8509 79.8201 13.3408 79.1885 12.9686C78.5561 12.5973 77.8509 12.4112 77.072 12.4112C76.2932 12.4112 75.5827 12.5973 74.9428 12.9686Z" fill="#227EFB"/>
<path d="M85.1735 16.3538C85.1735 14.2785 85.6707 12.718 86.6665 11.6714C87.6617 10.6255 88.982 10.1019 90.6269 10.1019H90.8867V12.5665H90.6269C89.6918 12.5665 88.9738 12.8778 88.4713 13.5005C87.9689 14.1232 87.718 15.0746 87.718 16.3538V23.1241H85.1735V16.3538Z" fill="#227EFB"/>
<path d="M92.2889 4.9664H94.8334V15.0836L99.8971 10.1552H103.143L98.1576 15.1099L104 23.1256H101.169L96.4174 16.7184L94.8334 18.2489V23.1256H92.2889V4.9664Z" fill="#227EFB"/>
<path d="M10.8645 11.7412V4.9274H13.4542C13.4542 4.99867 13.4542 5.0707 13.4542 5.14347C13.4542 8.94502 13.4774 12.7466 13.4466 16.5481C13.4234 19.4704 12.0782 21.6206 9.40973 22.8353C5.50725 24.6111 0.843212 22.1143 0.108681 17.9106C-0.507935 14.3851 1.54996 11.1035 4.99505 10.1709C6.66915 9.71779 8.29141 9.85058 9.76949 10.8394C10.1555 11.0975 10.4913 11.4314 10.8645 11.742V11.7412ZM10.9148 16.4723C10.8826 15.2314 10.3275 14.0468 9.14686 13.178C7.62598 12.0593 5.31347 12.1914 3.93979 13.4788C2.82973 14.5202 2.40691 15.8121 2.60594 17.3029C2.97245 20.0556 5.67099 21.5433 8.13895 20.6783C9.8491 20.0788 10.9074 18.5258 10.9156 16.4723H10.9148Z" fill="#2E2E2D"/>
<path d="M46.9382 16.6764C46.9336 20.4127 43.9182 23.4145 40.1787 23.4032C36.4452 23.392 33.4485 20.3887 33.4522 16.6629C33.456 12.9304 36.4775 9.92335 40.2132 9.93611C43.9482 9.94886 46.9419 12.9499 46.9374 16.6772L46.9382 16.6764ZM44.3756 16.6667C44.3485 14.5929 43.1476 12.9987 41.1949 12.5372C39.7731 12.2011 38.4693 12.5132 37.3833 13.5081C36.274 14.5247 35.8789 15.8181 36.0659 17.2954C36.3663 19.6632 38.639 21.3085 40.9778 20.8576C43.0011 20.4675 44.4026 18.7389 44.3756 16.6667Z" fill="#2E2E2D"/>
<path d="M32.0069 23.1909H29.4488C29.4488 23.1121 29.4488 23.0341 29.4488 22.9561C29.4488 20.7669 29.4488 18.5768 29.4488 16.3876C29.4488 15.6981 29.3827 15.0184 29.1604 14.3597C28.7654 13.19 27.8153 12.4795 26.5753 12.4262C25.985 12.4007 25.4044 12.4383 24.8546 12.6761C23.9856 13.0512 23.5185 13.755 23.2759 14.635C23.1137 15.2232 23.0716 15.8249 23.0724 16.4319C23.0746 18.6009 23.0731 20.7706 23.0731 22.9396V23.1894H20.506C20.506 23.1114 20.506 23.0386 20.506 22.9666C20.506 20.7774 20.5037 18.5874 20.5067 16.3981C20.5082 15.2412 20.6442 14.1053 21.1151 13.0332C21.8864 11.2769 23.2608 10.309 25.1325 10.0224C26.3282 9.83936 27.5111 9.91139 28.6482 10.3518C30.2697 10.9805 31.2213 12.2049 31.6937 13.8397C31.9273 14.6493 32.0107 15.4798 32.0129 16.3186C32.0182 18.5558 32.0152 20.7931 32.0144 23.0304C32.0144 23.0769 32.0107 23.1242 32.0069 23.1932V23.1909Z" fill="#2E2E2D"/>
<path d="M15.866 10.1461H18.4V23.1826H15.866V10.1461Z" fill="#2E2E2D"/>
<path d="M18.6706 6.7588C18.6744 7.6411 18.0112 8.32758 17.146 8.33659C16.262 8.34559 15.5627 7.65235 15.5627 6.76705C15.5627 5.88775 16.2477 5.20277 17.128 5.20127C17.9962 5.19977 18.6669 5.8765 18.6706 6.75955V6.7588Z" fill="#2E2E2D"/>
<path d="M56.2784 1.66226L57.3562 1.66226V0.585644L56.2784 0.585644V1.66226Z" fill="#C2D956"/>
<path d="M55.2003 1.66226L56.2781 1.66226V0.585644L55.2003 0.585644V1.66226Z" fill="#C2D956"/>
<path d="M54.1238 1.66226L55.2015 1.66226V0.585644L54.1238 0.585644V1.66226Z" fill="#9FCC4F"/>
<path d="M53.0457 1.66226L54.1234 1.66226V0.585644L53.0457 0.585644V1.66226Z" fill="#72BE49"/>
<path d="M51.9689 1.66226L53.0467 1.66226V0.585644L51.9689 0.585644V1.66226Z" fill="#9FCC4E"/>
<path d="M50.891 1.66226L51.9688 1.66226V0.585644L50.891 0.585644V1.66226Z" fill="#9FCC4E"/>
<path d="M49.8134 1.66226L50.8911 1.66226V0.585644L49.8134 0.585644V1.66226Z" fill="#72BE49"/>
<path d="M48.7365 1.66226L49.8143 1.66226V0.585644L48.7365 0.585644V1.66226Z" fill="#72BE49"/>
<path d="M56.2784 2.73819H57.3562V1.66157L56.2784 1.66157V2.73819Z" fill="#A1CD51"/>
<path d="M57.3555 2.73819H58.4332V1.66157L57.3555 1.66157V2.73819Z" fill="#BED757"/>
<path d="M55.2003 2.73819H56.2781V1.66157L55.2003 1.66157V2.73819Z" fill="#72BE49"/>
<path d="M54.1238 2.73819H55.2015V1.66157L54.1238 1.66157V2.73819Z" fill="#72BE49"/>
<path d="M53.0457 2.73819H54.1234V1.66157L53.0457 1.66157V2.73819Z" fill="#72BE49"/>
<path d="M51.9689 2.73819H53.0467V1.66157L51.9689 1.66157V2.73819Z" fill="#72BE49"/>
<path d="M50.891 2.73819H51.9688V1.66157L50.891 1.66157V2.73819Z" fill="#72BE49"/>
<path d="M49.8134 2.73819H50.8911V1.66157L49.8134 1.66157V2.73819Z" fill="#72BE49"/>
<path d="M48.7365 2.73819H49.8143V1.66157L48.7365 1.66157V2.73819Z" fill="#72BE49"/>
<path d="M47.6587 2.73819H48.7364V1.66157L47.6587 1.66157V2.73819Z" fill="#72BE49"/>
<path d="M56.2784 3.81479H57.3562V2.73817H56.2784V3.81479Z" fill="#72BE49"/>
<path d="M57.3555 3.81479H58.4332V2.73817H57.3555V3.81479Z" fill="#9FCC4E"/>
<path d="M58.4333 3.81479H59.5111V2.73817H58.4333V3.81479Z" fill="#C3D952"/>
<path d="M55.2003 3.81479H56.2781V2.73817H55.2003V3.81479Z" fill="#72BE49"/>
<path d="M54.1238 3.81479H55.2015V2.73817H54.1238V3.81479Z" fill="#72BE49"/>
<path d="M53.0457 3.81479H54.1234V2.73817H53.0457V3.81479Z" fill="#2EA14D"/>
<path d="M51.9689 3.81479H53.0467V2.73817H51.9689V3.81479Z" fill="#2EA14D"/>
<path d="M50.891 3.81479H51.9688V2.73817H50.891V3.81479Z" fill="#72BE49"/>
<path d="M49.8134 3.81479H50.8911V2.73817H49.8134V3.81479Z" fill="#72BE49"/>
<path d="M48.7365 3.81479H49.8143V2.73817H48.7365V3.81479Z" fill="#72BE49"/>
<path d="M47.6587 3.81479H48.7364V2.73817H47.6587V3.81479Z" fill="#72BE49"/>
<path d="M46.5817 3.81479H47.6594V2.73817H46.5817V3.81479Z" fill="#72BE49"/>
<path d="M56.2784 4.89062H57.3562V3.81401H56.2784V4.89062Z" fill="#72BE49"/>
<path d="M57.3555 4.89062H58.4332V3.81401H57.3555V4.89062Z" fill="#72BE49"/>
<path d="M58.4333 4.89062H59.5111V3.81401H58.4333V4.89062Z" fill="#9FCC4E"/>
<path d="M55.2003 4.89062H56.2781V3.81401H55.2003V4.89062Z" fill="#72BE49"/>
<path d="M54.1238 4.89062H55.2015V3.81401H54.1238V4.89062Z" fill="#72BE49"/>
<path d="M53.0457 4.89062H54.1234V3.81401H53.0457V4.89062Z" fill="#4A3B52"/>
<path d="M51.9689 4.89062H53.0467V3.81401H51.9689V4.89062Z" fill="#F3F8F0"/>
<path d="M50.891 4.89062H51.9688V3.81401H50.891V4.89062Z" fill="#72BE49"/>
<path d="M49.8134 4.89062H50.8911V3.81401H49.8134V4.89062Z" fill="#72BE49"/>
<path d="M48.7365 4.89062H49.8143V3.81401H48.7365V4.89062Z" fill="#72BE49"/>
<path d="M47.6587 4.89062H48.7364V3.81401H47.6587V4.89062Z" fill="#72BE49"/>
<path d="M46.5817 4.89062H47.6594V3.81401H46.5817V4.89062Z" fill="#72BE49"/>
<path d="M56.2784 5.96722H57.3562V4.89061H56.2784V5.96722Z" fill="#72BE49"/>
<path d="M57.3555 5.96722H58.4332V4.89061H57.3555V5.96722Z" fill="#26A64C"/>
<path d="M58.4333 5.96722H59.5111V4.89061H58.4333V5.96722Z" fill="#72BE49"/>
<path d="M55.2003 5.96722H56.2781V4.89061H55.2003V5.96722Z" fill="#72BE49"/>
<path d="M54.1238 5.96722H55.2015V4.89061H54.1238V5.96722Z" fill="#72BE49"/>
<path d="M53.0457 5.96722H54.1234V4.89061H53.0457V5.96722Z" fill="#A4CE51"/>
<path d="M51.9689 5.96722H53.0467V4.89061H51.9689V5.96722Z" fill="#A4CE51"/>
<path d="M50.891 5.96722H51.9688V4.89061H50.891V5.96722Z" fill="#A4CE51"/>
<path d="M49.8134 5.96722H50.8911V4.89061H49.8134V5.96722Z" fill="#72BE49"/>
<path d="M48.7365 5.96722H49.8143V4.89061H48.7365V5.96722Z" fill="#72BE49"/>
<path d="M47.6587 5.96722H48.7364V4.89061H47.6587V5.96722Z" fill="#72BE49"/>
<path d="M46.5817 5.96722H47.6594V4.89061H46.5817V5.96722Z" fill="#72BE49"/>
<path d="M56.2784 7.04315H57.3562V5.96653H56.2784V7.04315Z" fill="#72BE49"/>
<path d="M57.3555 7.04315H58.4332V5.96653H57.3555V7.04315Z" fill="#72BE49"/>
<path d="M58.4333 7.04315H59.5111V5.96653H58.4333V7.04315Z" fill="#72BE49"/>
<path d="M55.2003 7.04315H56.2781V5.96653H55.2003V7.04315Z" fill="#72BE49"/>
<path d="M54.1238 7.04315H55.2015V5.96653H54.1238V7.04315Z" fill="#72BE49"/>
<path d="M53.0457 7.04315H54.1234V5.96653H53.0457V7.04315Z" fill="#72BE49"/>
<path d="M51.9689 7.04315H53.0467V5.96653H51.9689V7.04315Z" fill="#72BE49"/>
<path d="M50.891 7.04315H51.9688V5.96653H50.891V7.04315Z" fill="#72BE49"/>
<path d="M49.8134 7.04315H50.8911V5.96653H49.8134V7.04315Z" fill="#72BE49"/>
<path d="M48.7365 7.04315H49.8143V5.96653H48.7365V7.04315Z" fill="#72BE49"/>
<path d="M47.6587 7.04315H48.7364V5.96653H47.6587V7.04315Z" fill="#72BE49"/>
<path d="M46.5817 7.04315H47.6594V5.96653H46.5817V7.04315Z" fill="#72BE49"/>
<path d="M56.2784 9.19559H57.3562V8.11897H56.2784V9.19559Z" fill="#72BE49"/>
<path d="M57.3555 9.19559H58.4332V8.11897H57.3555V9.19559Z" fill="#72BE49"/>
<path d="M55.2003 9.19559H56.2781V8.11897H55.2003V9.19559Z" fill="#72BE49"/>
<path d="M54.1238 9.19559H55.2015V8.11897H54.1238V9.19559Z" fill="#72BE49"/>
<path d="M53.0457 9.19559H54.1234V8.11897H53.0457V9.19559Z" fill="#72BE49"/>
<path d="M51.9689 9.19559H53.0467V8.11897H51.9689V9.19559Z" fill="#72BE49"/>
<path d="M50.891 9.19559H51.9688V8.11897H50.891V9.19559Z" fill="#72BE49"/>
<path d="M49.8134 9.19559H50.8911V8.11897H49.8134V9.19559Z" fill="#27A54D"/>
<path d="M48.7365 9.19559H49.8143V8.11897H48.7365V9.19559Z" fill="#27A54D"/>
<path d="M47.6587 9.19559H48.7364V8.11897H47.6587V9.19559Z" fill="#72BE49"/>
<path d="M46.5817 9.19559H47.6594V8.11897H46.5817V9.19559Z" fill="#72BE49"/>
<path d="M45.5035 9.19559H46.5813V8.11897H45.5035V9.19559Z" fill="#72BE49"/>
<path d="M50.891 10.2722H51.9688V9.1956H50.891V10.2722Z" fill="#27A54D"/>
<path d="M49.8134 10.2722H50.8911V9.1956H49.8134V10.2722Z" fill="#72BE49"/>
<path d="M48.7365 10.2722H49.8143V9.1956H48.7365V10.2722Z" fill="#72BE49"/>
<path d="M47.6587 10.2722H48.7364V9.1956H47.6587V10.2722Z" fill="#72BE49"/>
<path d="M46.5817 10.2722H47.6594V9.1956H46.5817V10.2722Z" fill="#72BE49"/>
<path d="M45.5035 10.2722H46.5813V9.1956H45.5035V10.2722Z" fill="#72BE49"/>
<path d="M44.4268 10.2722H45.5045V9.1956H44.4268V10.2722Z" fill="#9FCC50"/>
<path d="M50.891 11.3488H51.9688V10.2722H50.891V11.3488Z" fill="#72BE49"/>
<path d="M49.8134 11.3488H50.8911V10.2722H49.8134V11.3488Z" fill="#72BE49"/>
<path d="M48.7365 11.3488H49.8143V10.2722H48.7365V11.3488Z" fill="#72BE49"/>
<path d="M47.6587 11.3488H48.7364V10.2722H47.6587V11.3488Z" fill="#72BE49"/>
<path d="M46.5817 11.3488H47.6594V10.2722H46.5817V11.3488Z" fill="#72BE49"/>
<path d="M45.5035 11.3488H46.5813V10.2722H45.5035V11.3488Z" fill="#72BE49"/>
<path d="M44.4268 11.3488H45.5045V10.2722H44.4268V11.3488Z" fill="#9FCC50"/>
<path d="M43.3497 11.3488H44.4275V10.2722H43.3497V11.3488Z" fill="#C4DA59"/>
<path d="M50.891 12.4247H51.9688V11.3481H50.891V12.4247Z" fill="#9FCC4B"/>
<path d="M49.8134 12.4247H50.8911V11.3481H49.8134V12.4247Z" fill="#72BE49"/>
<path d="M48.7365 12.4247H49.8143V11.3481H48.7365V12.4247Z" fill="#72BE49"/>
<path d="M47.6587 12.4247H48.7364V11.3481H47.6587V12.4247Z" fill="#72BE49"/>
<path d="M46.5817 12.4247H47.6594V11.3481H46.5817V12.4247Z" fill="#72BE49"/>
<path d="M45.5035 12.4247H46.5813V11.3481H45.5035V12.4247Z" fill="#72BE49"/>
<path d="M44.4268 12.4247H45.5045V11.3481H44.4268V12.4247Z" fill="#72BE49"/>
<path d="M43.3497 12.4247H44.4275V11.3481H43.3497V12.4247Z" fill="#9FCC50"/>
<path d="M42.2714 12.4247H43.3492V11.3481H42.2714V12.4247Z" fill="#C4DA59"/>
<path d="M50.891 13.5013H51.9688V12.4247H50.891V13.5013Z" fill="#9FCC4D"/>
<path d="M51.9689 13.5013H53.0467V12.4247H51.9689V13.5013Z" fill="#C6DD7B"/>
<path d="M53.0457 13.5013H54.1234V12.4247H53.0457V13.5013Z" fill="#C6DD7B"/>
<path d="M49.8134 13.5013H50.8911V12.4247H49.8134V13.5013Z" fill="#72BE49"/>
<path d="M48.7365 13.5013H49.8143V12.4247H48.7365V13.5013Z" fill="#27A54C"/>
<path d="M47.6587 13.5013H48.7364V12.4247H47.6587V13.5013Z" fill="#72BE49"/>
<path d="M46.5817 13.5013H47.6594V12.4247H46.5817V13.5013Z" fill="#72BE49"/>
<path d="M45.5035 13.5013H46.5813V12.4247H45.5035V13.5013Z" fill="#72BE49"/>
<path d="M44.4268 13.5013H45.5045V12.4247H44.4268V13.5013Z" fill="#72BE49"/>
<path d="M43.3497 13.5013H44.4275V12.4247H43.3497V13.5013Z" fill="#72BE49"/>
<path d="M42.2714 13.5013H43.3492V12.4247H42.2714V13.5013Z" fill="#A0CC4F"/>
<path d="M41.194 13.5013H42.2717V12.4247H41.194V13.5013Z" fill="#C4D956"/>
<path d="M40.1163 13.5013H41.194V12.4247H40.1163V13.5013Z" fill="#C3DA5E"/>
<path d="M39.0395 13.5013H40.1172V12.4247H39.0395V13.5013Z" fill="#72BE49"/>
<path d="M37.9618 13.5013H39.0396V12.4247H37.9618V13.5013Z" fill="#72BE49"/>
<path d="M36.8848 13.5013H37.9626V12.4247H36.8848V13.5013Z" fill="#72BE49"/>
<path d="M50.891 14.5772H51.9688V13.5006H50.891V14.5772Z" fill="#72BE49"/>
<path d="M51.9689 14.5772H53.0467V13.5006H51.9689V14.5772Z" fill="#72BE49"/>
<path d="M53.0457 14.5772H54.1234V13.5006H53.0457V14.5772Z" fill="#72BE49"/>
<path d="M54.1238 14.5772H55.2015V13.5006H54.1238V14.5772Z" fill="#C6DD7B"/>
<path d="M54.1238 15.6538H55.2015V14.5772H54.1238V15.6538Z" fill="#72BE49"/>
<path d="M49.8134 14.5772H50.8911V13.5006H49.8134V14.5772Z" fill="#72BE49"/>
<path d="M48.7365 14.5772H49.8143V13.5006H48.7365V14.5772Z" fill="#27A54C"/>
<path d="M47.6587 14.5772H48.7364V13.5006H47.6587V14.5772Z" fill="#72BE49"/>
<path d="M46.5817 14.5772H47.6594V13.5006H46.5817V14.5772Z" fill="#72BE49"/>
<path d="M45.5035 14.5772H46.5813V13.5006H45.5035V14.5772Z" fill="#72BE49"/>
<path d="M44.4268 14.5772H45.5045V13.5006H44.4268V14.5772Z" fill="#72BE49"/>
<path d="M43.3497 14.5772H44.4275V13.5006H43.3497V14.5772Z" fill="#72BE49"/>
<path d="M42.2714 14.5772H43.3492V13.5006H42.2714V14.5772Z" fill="#72BE49"/>
<path d="M41.194 14.5772H42.2717V13.5006H41.194V14.5772Z" fill="#72BE49"/>
<path d="M40.1163 14.5772H41.194V13.5006H40.1163V14.5772Z" fill="#72BE49"/>
<path d="M39.0395 14.5772H40.1172V13.5006H39.0395V14.5772Z" fill="#72BE49"/>
<path d="M37.9618 14.5772H39.0396V13.5006H37.9618V14.5772Z" fill="#72BE49"/>
<path d="M49.8134 15.6538H50.8911V14.5772H49.8134V15.6538Z" fill="#27A54C"/>
<path d="M48.7365 15.6538H49.8143V14.5772H48.7365V15.6538Z" fill="#27A54C"/>
<path d="M47.6587 15.6538H48.7364V14.5772H47.6587V15.6538Z" fill="#72BE49"/>
<path d="M46.5817 15.6538H47.6594V14.5772H46.5817V15.6538Z" fill="#72BE49"/>
<path d="M45.5035 15.6538H46.5813V14.5772H45.5035V15.6538Z" fill="#72BE49"/>
<path d="M44.4268 15.6538H45.5045V14.5772H44.4268V15.6538Z" fill="#72BE49"/>
<path d="M43.3497 15.6538H44.4275V14.5772H43.3497V15.6538Z" fill="#72BE49"/>
<path d="M42.2714 15.6538H43.3492V14.5772H42.2714V15.6538Z" fill="#72BE49"/>
<path d="M41.194 15.6538H42.2717V14.5772H41.194V15.6538Z" fill="#72BE49"/>
<path d="M40.1163 15.6538H41.194V14.5772H40.1163V15.6538Z" fill="#72BE49"/>
<path d="M39.0395 15.6538H40.1172V14.5772H39.0395V15.6538Z" fill="#72BE49"/>
<path d="M37.9618 15.6538H39.0396V14.5772H37.9618V15.6538Z" fill="#23A64A"/>
<path d="M49.8134 16.7297H50.8911V15.6531H49.8134V16.7297Z" fill="#27A54C"/>
<path d="M48.7365 16.7297H49.8143V15.6531H48.7365V16.7297Z" fill="#27A54C"/>
<path d="M47.6587 16.7297H48.7364V15.6531H47.6587V16.7297Z" fill="#27A54C"/>
<path d="M46.5817 16.7297H47.6594V15.6531H46.5817V16.7297Z" fill="#72BE49"/>
<path d="M45.5035 16.7297H46.5813V15.6531H45.5035V16.7297Z" fill="#72BE49"/>
<path d="M44.4268 16.7297H45.5045V15.6531H44.4268V16.7297Z" fill="#72BE49"/>
<path d="M43.3497 16.7297H44.4275V15.6531H43.3497V16.7297Z" fill="#72BE49"/>
<path d="M42.2714 16.7297H43.3492V15.6531H42.2714V16.7297Z" fill="#72BE49"/>
<path d="M41.194 16.7297H42.2717V15.6531H41.194V16.7297Z" fill="#72BE49"/>
<path d="M40.1163 16.7297H41.194V15.6531H40.1163V16.7297Z" fill="#72BE49"/>
<path d="M39.0395 16.7297H40.1172V15.6531H39.0395V16.7297Z" fill="#72BE49"/>
<path d="M37.9618 16.7297H39.0396V15.6531H37.9618V16.7297Z" fill="#23A64A"/>
<path d="M48.7365 17.8063H49.8143V16.7297H48.7365V17.8063Z" fill="#27A54C"/>
<path d="M47.6587 17.8063H48.7364V16.7297H47.6587V17.8063Z" fill="#27A54C"/>
<path d="M46.5817 17.8063H47.6594V16.7297H46.5817V17.8063Z" fill="#27A54C"/>
<path d="M45.5035 17.8063H46.5813V16.7297H45.5035V17.8063Z" fill="#72BE49"/>
<path d="M44.4268 17.8063H45.5045V16.7297H44.4268V17.8063Z" fill="#9DCB4E"/>
<path d="M43.3497 17.8063H44.4275V16.7297H43.3497V17.8063Z" fill="#72BE49"/>
<path d="M42.2714 17.8063H43.3492V16.7297H42.2714V17.8063Z" fill="#72BE49"/>
<path d="M41.194 17.8063H42.2717V16.7297H41.194V17.8063Z" fill="#72BE49"/>
<path d="M40.1163 17.8063H41.194V16.7297H40.1163V17.8063Z" fill="#72BE49"/>
<path d="M39.0395 17.8063H40.1172V16.7297H39.0395V17.8063Z" fill="#28A54A"/>
<path d="M47.6587 18.8829H48.7364V17.8063H47.6587V18.8829Z" fill="#27A54C"/>
<path d="M46.5817 18.8829H47.6594V17.8063H46.5817V18.8829Z" fill="#27A54C"/>
<path d="M47.6587 19.9587H48.7364V18.8821H47.6587V19.9587Z" fill="#27A54C"/>
<path d="M46.5817 19.9587H47.6594V18.8821H46.5817V19.9587Z" fill="#27A54C"/>
<path d="M47.6587 21.0353H48.7364V19.9587H47.6587V21.0353Z" fill="#27A54C"/>
<path d="M46.5817 21.0353H47.6594V19.9587H46.5817V21.0353Z" fill="#27A54C"/>
<path d="M47.6587 22.1113H48.7364V21.0346H47.6587V22.1113Z" fill="#27A54C"/>
<path d="M46.5817 22.1113H47.6594V21.0346H46.5817V22.1113Z" fill="#27A54C"/>
<path d="M48.7365 23.1879H49.8143V22.1112H48.7365V23.1879Z" fill="#27A54C"/>
<path d="M47.6587 23.1879H48.7364V22.1112H47.6587V23.1879Z" fill="#27A54C"/>
<path d="M45.5035 18.8829H46.5813V17.8063H45.5035V18.8829Z" fill="#27A54C"/>
<path d="M44.4268 18.8829H45.5045V17.8063H44.4268V18.8829Z" fill="#9DCB4E"/>
<path d="M43.3497 18.8829H44.4275V17.8063H43.3497V18.8829Z" fill="#9DCB4E"/>
<path d="M42.2714 18.8829H43.3492V17.8063H42.2714V18.8829Z" fill="#72BE49"/>
<path d="M43.3497 19.9587H44.4275V18.8821H43.3497V19.9587Z" fill="#9DCB4E"/>
<path d="M42.2714 19.9587H43.3492V18.8821H42.2714V19.9587Z" fill="#72BE49"/>
<path d="M43.3497 21.0353H44.4275V19.9587H43.3497V21.0353Z" fill="#9DCB4E"/>
<path d="M42.2714 21.0353H43.3492V19.9587H42.2714V21.0353Z" fill="#72BE49"/>
<path d="M43.3497 22.1113H44.4275V21.0346H43.3497V22.1113Z" fill="#72BE49"/>
<path d="M42.2714 22.1113H43.3492V21.0346H42.2714V22.1113Z" fill="#72BE49"/>
<path d="M44.4268 23.1879H45.5045V22.1112H44.4268V23.1879Z" fill="#72BE49"/>
<path d="M43.3497 23.1879H44.4275V22.1112H43.3497V23.1879Z" fill="#72BE49"/>
<path d="M41.194 18.8829H42.2717V17.8063H41.194V18.8829Z" fill="#72BE49"/>
<path d="M40.1163 18.8829H41.194V17.8063H40.1163V18.8829Z" fill="#28A54A"/>
<path d="M36.8848 14.5772H37.9626V13.5006H36.8848V14.5772Z" fill="#28A44D"/>
<path d="M35.8067 13.5013H36.8845V12.4247H35.8067V13.5013Z" fill="#2BA255"/>
<path d="M37.9618 12.4247H39.0396V11.3481H37.9618V12.4247Z" fill="#C1D95C"/>
<path d="M36.8848 12.4247H37.9626V11.3481H36.8848V12.4247Z" fill="#9FCC4F"/>
<path d="M35.8067 12.4247H36.8845V11.3481H35.8067V12.4247Z" fill="#71BE48"/>
<path d="M34.729 12.4247H35.8068V11.3481H34.729V12.4247Z" fill="#27A54D"/>
<path d="M35.8067 11.3488H36.8845V10.2722H35.8067V11.3488Z" fill="#A0CC4F"/>
<path d="M34.729 11.3488H35.8068V10.2722H34.729V11.3488Z" fill="#72BE49"/>
<path d="M33.6521 11.3488H34.7298V10.2722H33.6521V11.3488Z" fill="#72BE49"/>
<path d="M32.5746 11.3488H33.6523V10.2722H32.5746V11.3488Z" fill="#72BE49"/>
<path d="M31.5027 12.4247H32.5805V11.3481H31.5027V12.4247Z" fill="#71BE46"/>
<path d="M53.0457 8.11969H54.1234V7.04307H53.0457V8.11969Z" fill="#72BE49"/>
<path d="M51.9689 8.11969H53.0467V7.04307H51.9689V8.11969Z" fill="#72BE49"/>
<path d="M50.891 8.11969H51.9688V7.04307H50.891V8.11969Z" fill="#72BE49"/>
<path d="M49.8134 8.11969H50.8911V7.04307H49.8134V8.11969Z" fill="#72BE49"/>
<path d="M48.7365 8.11969H49.8143V7.04307H48.7365V8.11969Z" fill="#72BE49"/>
<path d="M47.6587 8.11969H48.7364V7.04307H47.6587V8.11969Z" fill="#72BE49"/>
<path d="M46.5817 8.11969H47.6594V7.04307H46.5817V8.11969Z" fill="#72BE49"/>
<path d="M40.6236 20.9086C38.4132 21.1389 36.3493 19.5439 36.0646 17.2953C35.8776 15.8181 36.2727 14.5246 37.382 13.508C38.4275 12.55 39.675 12.2274 41.0351 12.5042C41.0179 12.3617 41.0058 12.2199 40.9998 12.0781C40.9698 11.4148 41.1786 10.6923 41.5203 10.0659C41.0975 9.98259 40.6603 9.93758 40.2127 9.93608C36.477 9.92332 33.4555 12.9303 33.4517 16.6629C33.448 20.3894 36.4447 23.3919 40.1782 23.4032C40.7753 23.4047 41.3528 23.3297 41.9034 23.1871C41.8553 23.1458 41.808 23.1038 41.7607 23.0611C41.1418 22.4931 40.785 21.7189 40.6228 20.9093L40.6236 20.9086Z" fill="#2E2E2D"/>
</svg>
